<svg width="264" height="53" viewBox="0 0 264 53" fill="none" xmlns="http://www.w3.org/2000/svg">
<path d="M58.5586 42H54.3926V16.3008H68.8945V19.8516H58.5586V27.8848H68.2441V31.4531H58.5586V42ZM91.0774 32.2441C91.0774 35.4199 90.263 37.8984 88.6341 39.6797C87.0052 41.4609 84.7376 42.3516 81.8313 42.3516C80.0149 42.3516 78.4095 41.9414 77.0149 41.1211C75.6204 40.3008 74.5481 39.123 73.7981 37.5879C73.0481 36.0527 72.6731 34.2715 72.6731 32.2441C72.6731 29.0918 73.4817 26.6309 75.0989 24.8613C76.7161 23.0918 78.9954 22.207 81.9368 22.207C84.7493 22.207 86.9759 23.1152 88.6165 24.9316C90.2571 26.7363 91.0774 29.1738 91.0774 32.2441ZM76.927 32.2441C76.927 36.7324 78.5852 38.9766 81.9016 38.9766C85.1829 38.9766 86.8235 36.7324 86.8235 32.2441C86.8235 27.8027 85.1712 25.582 81.8665 25.582C80.1321 25.582 78.8723 26.1562 78.0872 27.3047C77.3137 28.4531 76.927 30.0996 76.927 32.2441ZM113.805 32.2441C113.805 35.4199 112.991 37.8984 111.362 39.6797C109.733 41.4609 107.465 42.3516 104.559 42.3516C102.743 42.3516 101.137 41.9414 99.7427 41.1211C98.3482 40.3008 97.2759 39.123 96.5259 37.5879C95.7759 36.0527 95.4009 34.2715 95.4009 32.2441C95.4009 29.0918 96.2095 26.6309 97.8267 24.8613C99.4439 23.0918 101.723 22.207 104.665 22.207C107.477 22.207 109.704 23.1152 111.344 24.9316C112.985 26.7363 113.805 29.1738 113.805 32.2441ZM99.6548 32.2441C99.6548 36.7324 101.313 38.9766 104.629 38.9766C107.911 38.9766 109.551 36.7324 109.551 32.2441C109.551 27.8027 107.899 25.582 104.594 25.582C102.86 25.582 101.6 26.1562 100.815 27.3047C100.042 28.4531 99.6548 30.0996 99.6548 32.2441ZM125.846 42.3516C123.42 42.3516 121.527 41.4727 120.168 39.7148C118.808 37.957 118.129 35.4902 118.129 32.3145C118.129 29.127 118.814 26.6484 120.185 24.8789C121.568 23.0977 123.478 22.207 125.916 22.207C128.471 22.207 130.416 23.1504 131.752 25.0371H131.963C131.764 23.6426 131.664 22.541 131.664 21.7324V14.6484H135.812V42H132.578L131.857 39.4512H131.664C130.34 41.3848 128.4 42.3516 125.846 42.3516ZM126.953 39.0117C128.652 39.0117 129.889 38.5371 130.662 37.5879C131.435 36.627 131.834 35.0742 131.857 32.9297V32.3496C131.857 29.9004 131.459 28.1602 130.662 27.1289C129.865 26.0977 128.617 25.582 126.918 25.582C125.465 25.582 124.346 26.1738 123.56 27.3574C122.775 28.5293 122.383 30.2051 122.383 32.3848C122.383 34.541 122.764 36.1875 123.525 37.3242C124.287 38.4492 125.43 39.0117 126.953 39.0117ZM160.069 42H155.499V29.4507H142.664V42H138.112V14.1592H142.664V25.5469H155.499V14.1592H160.069V42ZM181.169 42L180.589 39.4512H180.378C179.804 40.3535 178.984 41.0625 177.917 41.5781C176.863 42.0938 175.656 42.3516 174.296 42.3516C171.941 42.3516 170.183 41.7656 169.023 40.5938C167.863 39.4219 167.282 37.6465 167.282 35.2676V22.5586H171.448V34.5469C171.448 36.0352 171.753 37.1543 172.363 37.9043C172.972 38.6426 173.927 39.0117 175.228 39.0117C176.962 39.0117 178.234 38.4961 179.042 37.4648C179.863 36.4219 180.273 34.6816 180.273 32.2441V22.5586H184.421V42H181.169ZM208.133 42H203.985V30.0469C203.985 28.5469 203.68 27.4277 203.071 26.6895C202.473 25.9512 201.518 25.582 200.206 25.582C198.459 25.582 197.182 26.0977 196.374 27.1289C195.565 28.1602 195.161 29.8887 195.161 32.3145V42H191.03V22.5586H194.264L194.844 25.1074H195.055C195.641 24.1816 196.473 23.4668 197.551 22.9629C198.629 22.459 199.825 22.207 201.137 22.207C205.801 22.207 208.133 24.5801 208.133 29.3262V42ZM221.844 39.0117C222.851 39.0117 223.859 38.8535 224.867 38.5371V41.6484C224.41 41.8477 223.818 42.0117 223.092 42.1406C222.377 42.2812 221.633 42.3516 220.859 42.3516C216.945 42.3516 214.988 40.2891 214.988 36.1641V25.6875H212.334V23.8594L215.181 22.3477L216.588 18.2344H219.137V22.5586H224.674V25.6875H219.137V36.0938C219.137 37.0898 219.383 37.8281 219.875 38.3086C220.379 38.7773 221.035 39.0117 221.844 39.0117ZM237.98 42.3516C234.956 42.3516 232.589 41.4727 230.878 39.7148C229.179 37.9453 228.329 35.5137 228.329 32.4199C228.329 29.2441 229.12 26.748 230.702 24.9316C232.284 23.1152 234.458 22.207 237.224 22.207C239.79 22.207 241.817 22.9863 243.306 24.5449C244.794 26.1035 245.538 28.248 245.538 30.9785V33.2109H232.583C232.642 35.0977 233.151 36.5508 234.112 37.5703C235.073 38.5781 236.427 39.082 238.173 39.082C239.321 39.082 240.388 38.9766 241.372 38.7656C242.368 38.543 243.435 38.1797 244.571 37.6758V41.0332C243.564 41.5137 242.544 41.8535 241.513 42.0527C240.482 42.252 239.304 42.3516 237.98 42.3516ZM237.224 25.3359C235.911 25.3359 234.857 25.752 234.06 26.584C233.274 27.416 232.806 28.6289 232.653 30.2227H241.478C241.454 28.6172 241.067 27.4043 240.317 26.584C239.567 25.752 238.536 25.3359 237.224 25.3359ZM260.813 22.207C261.645 22.207 262.33 22.2656 262.869 22.3828L262.465 26.2324C261.879 26.0918 261.27 26.0215 260.637 26.0215C258.985 26.0215 257.643 26.5605 256.612 27.6387C255.592 28.7168 255.082 30.1172 255.082 31.8398V42H250.952V22.5586H254.186L254.731 25.9863H254.942C255.586 24.8262 256.424 23.9062 257.455 23.2266C258.498 22.5469 259.618 22.207 260.813 22.207Z" fill="white"/>
<path d="M58.5586 42V42.4H58.9586V42H58.5586ZM54.3926 42H53.9926V42.4H54.3926V42ZM54.3926 16.3008V15.9008H53.9926V16.3008H54.3926ZM68.8945 16.3008H69.2945V15.9008H68.8945V16.3008ZM68.8945 19.8516V20.2516H69.2945V19.8516H68.8945ZM58.5586 19.8516V19.4516H58.1586V19.8516H58.5586ZM58.5586 27.8848H58.1586V28.2848H58.5586V27.8848ZM68.2441 27.8848H68.6441V27.4848H68.2441V27.8848ZM68.2441 31.4531V31.8531H68.6441V31.4531H68.2441ZM58.5586 31.4531V31.0531H58.1586V31.4531H58.5586ZM58.5586 41.6H54.3926V42.4H58.5586V41.6ZM54.7926 42V16.3008H53.9926V42H54.7926ZM54.3926 16.7008H68.8945V15.9008H54.3926V16.7008ZM68.4945 16.3008V19.8516H69.2945V16.3008H68.4945ZM68.8945 19.4516H58.5586V20.2516H68.8945V19.4516ZM58.1586 19.8516V27.8848H58.9586V19.8516H58.1586ZM58.5586 28.2848H68.2441V27.4848H58.5586V28.2848ZM67.8441 27.8848V31.4531H68.6441V27.8848H67.8441ZM68.2441 31.0531H58.5586V31.8531H68.2441V31.0531ZM58.1586 31.4531V42H58.9586V31.4531H58.1586ZM88.6165 24.9316L88.3196 25.1998L88.3205 25.2007L88.6165 24.9316ZM78.0872 27.3047L77.757 27.0789L77.7554 27.0812L78.0872 27.3047ZM90.6774 32.2441C90.6774 35.3523 89.8813 37.723 88.3389 39.4097L88.9292 39.9496C90.6446 38.0738 91.4774 35.4875 91.4774 32.2441H90.6774ZM88.3389 39.4097C86.801 41.0914 84.6501 41.9516 81.8313 41.9516V42.7516C84.825 42.7516 87.2093 41.8305 88.9292 39.9496L88.3389 39.4097ZM81.8313 41.9516C80.0773 41.9516 78.5435 41.5562 77.2177 40.7763L76.8121 41.4659C78.2754 42.3266 79.9526 42.7516 81.8313 42.7516V41.9516ZM77.2177 40.7763C75.8948 39.9981 74.8751 38.8811 74.1575 37.4123L73.4387 37.7635C74.2212 39.365 75.346 40.6035 76.8121 41.4659L77.2177 40.7763ZM74.1575 37.4123C73.4388 35.9411 73.0731 34.2219 73.0731 32.2441H72.2731C72.2731 34.3211 72.6575 36.1644 73.4387 37.7635L74.1575 37.4123ZM73.0731 32.2441C73.0731 29.1594 73.8633 26.8062 75.3942 25.1312L74.8036 24.5915C73.1001 26.4555 72.2731 29.0242 72.2731 32.2441H73.0731ZM75.3942 25.1312C76.9188 23.4629 79.0802 22.607 81.9368 22.607V21.807C78.9106 21.807 76.5134 22.7207 74.8036 24.5915L75.3942 25.1312ZM81.9368 22.607C84.6547 22.607 86.7665 23.4802 88.3196 25.1998L88.9133 24.6635C87.1852 22.7503 84.8438 21.807 81.9368 21.807V22.607ZM88.3205 25.2007C89.8781 26.9141 90.6774 29.2466 90.6774 32.2441H91.4774C91.4774 29.1011 90.6361 26.5585 88.9125 24.6626L88.3205 25.2007ZM76.527 32.2441C76.527 34.5258 76.9464 36.3097 77.849 37.5312C78.7682 38.7753 80.1436 39.3766 81.9016 39.3766V38.5766C80.3433 38.5766 79.2313 38.0558 78.4924 37.0557C77.7367 36.0331 77.327 34.4507 77.327 32.2441H76.527ZM81.9016 39.3766C83.6438 39.3766 85.0061 38.774 85.916 37.5295C86.8087 36.3083 87.2235 34.5252 87.2235 32.2441H86.4235C86.4235 34.4514 86.018 36.0344 85.2701 37.0574C84.5393 38.057 83.4408 38.5766 81.9016 38.5766V39.3766ZM87.2235 32.2441C87.2235 29.9855 86.8054 28.2187 85.9052 27.0088C84.9884 25.7767 83.6176 25.182 81.8665 25.182V25.982C83.42 25.982 84.5278 26.4977 85.2633 27.4863C86.0154 28.4971 86.4235 30.0614 86.4235 32.2441H87.2235ZM81.8665 25.182C80.0368 25.182 78.6353 25.7942 77.757 27.0789L78.4174 27.5304C79.1094 26.5183 80.2274 25.982 81.8665 25.982V25.182ZM77.7554 27.0812C76.9193 28.3228 76.527 30.0605 76.527 32.2441H77.327C77.327 30.1387 77.7082 28.5835 78.419 27.5281L77.7554 27.0812ZM111.344 24.9316L111.047 25.1998L111.048 25.2007L111.344 24.9316ZM100.815 27.3047L100.485 27.0789L100.483 27.0812L100.815 27.3047ZM113.405 32.2441C113.405 35.3523 112.609 37.723 111.067 39.4097L111.657 39.9496C113.372 38.0738 114.205 35.4875 114.205 32.2441H113.405ZM111.067 39.4097C109.529 41.0914 107.378 41.9516 104.559 41.9516V42.7516C107.553 42.7516 109.937 41.8305 111.657 39.9496L111.067 39.4097ZM104.559 41.9516C102.805 41.9516 101.271 41.5562 99.9455 40.7763L99.5399 41.4659C101.003 42.3266 102.68 42.7516 104.559 42.7516V41.9516ZM99.9455 40.7763C98.6226 39.9981 97.6029 38.8811 96.8853 37.4123L96.1665 37.7635C96.949 39.365 98.0738 40.6035 99.5399 41.4659L99.9455 40.7763ZM96.8853 37.4123C96.1666 35.9411 95.8009 34.2219 95.8009 32.2441H95.0009C95.0009 34.3211 95.3853 36.1644 96.1665 37.7635L96.8853 37.4123ZM95.8009 32.2441C95.8009 29.1594 96.5911 26.8062 98.122 25.1312L97.5315 24.5915C95.8279 26.4555 95.0009 29.0242 95.0009 32.2441H95.8009ZM98.122 25.1312C99.6466 23.4629 101.808 22.607 104.665 22.607V21.807C101.638 21.807 99.2412 22.7207 97.5315 24.5915L98.122 25.1312ZM104.665 22.607C107.383 22.607 109.494 23.4802 111.047 25.1998L111.641 24.6635C109.913 22.7503 107.572 21.807 104.665 21.807V22.607ZM111.048 25.2007C112.606 26.9141 113.405 29.2466 113.405 32.2441H114.205C114.205 29.1011 113.364 26.5585 111.64 24.6626L111.048 25.2007ZM99.2548 32.2441C99.2548 34.5258 99.6742 36.3097 100.577 37.5312C101.496 38.7753 102.871 39.3766 104.629 39.3766V38.5766C103.071 38.5766 101.959 38.0558 101.22 37.0557C100.465 36.0331 100.055 34.4507 100.055 32.2441H99.2548ZM104.629 39.3766C106.372 39.3766 107.734 38.774 108.644 37.5295C109.537 36.3083 109.951 34.5252 109.951 32.2441H109.151C109.151 34.4514 108.746 36.0344 107.998 37.0574C107.267 38.057 106.169 38.5766 104.629 38.5766V39.3766ZM109.951 32.2441C109.951 29.9855 109.533 28.2187 108.633 27.0088C107.716 25.7767 106.345 25.182 104.594 25.182V25.982C106.148 25.982 107.256 26.4977 107.991 27.4863C108.743 28.4971 109.151 30.0614 109.151 32.2441H109.951ZM104.594 25.182C102.765 25.182 101.363 25.7942 100.485 27.0789L101.145 27.5304C101.837 26.5183 102.955 25.982 104.594 25.982V25.182ZM100.483 27.0812C99.6471 28.3228 99.2548 30.0605 99.2548 32.2441H100.055C100.055 30.1387 100.436 28.5835 101.147 27.5281L100.483 27.0812ZM120.185 24.8789L119.869 24.6336L119.869 24.6339L120.185 24.8789ZM131.752 25.0371L131.425 25.2683L131.545 25.4371H131.752V25.0371ZM131.963 25.0371V25.4371H132.424L132.359 24.9805L131.963 25.0371ZM131.664 14.6484V14.2484H131.264V14.6484H131.664ZM135.812 14.6484H136.212V14.2484H135.812V14.6484ZM135.812 42V42.4H136.212V42H135.812ZM132.578 42L132.193 42.1088L132.275 42.4H132.578V42ZM131.857 39.4512L132.242 39.3423L132.16 39.0512H131.857V39.4512ZM131.664 39.4512V39.0512H131.453L131.334 39.2252L131.664 39.4512ZM130.662 37.5879L130.972 37.8406L130.974 37.8387L130.662 37.5879ZM131.857 32.9297L132.257 32.9341V32.9297H131.857ZM123.56 27.3574L123.893 27.5801L123.894 27.5785L123.56 27.3574ZM123.525 37.3242L123.193 37.5469L123.194 37.5485L123.525 37.3242ZM125.846 41.9516C123.531 41.9516 121.76 41.1201 120.484 39.4701L119.851 39.9595C121.294 41.8252 123.309 42.7516 125.846 42.7516V41.9516ZM120.484 39.4701C119.198 37.8069 118.529 35.4386 118.529 32.3145H117.729C117.729 35.5419 118.419 38.1072 119.851 39.9595L120.484 39.4701ZM118.529 32.3145C118.529 29.179 119.204 26.799 120.502 25.1239L119.869 24.6339C118.425 26.4978 117.729 29.0749 117.729 32.3145H118.529ZM120.501 25.1242C121.802 23.4493 123.59 22.607 125.916 22.607V21.807C123.366 21.807 121.335 22.746 119.869 24.6336L120.501 25.1242ZM125.916 22.607C128.357 22.607 130.173 23.4998 131.425 25.2683L132.078 24.806C130.659 22.801 128.584 21.807 125.916 21.807V22.607ZM131.752 25.4371H131.963V24.6371H131.752V25.4371ZM132.359 24.9805C132.161 23.5932 132.064 22.5132 132.064 21.7324H131.264C131.264 22.5688 131.367 23.692 131.567 25.0937L132.359 24.9805ZM132.064 21.7324V14.6484H131.264V21.7324H132.064ZM131.664 15.0484H135.812V14.2484H131.664V15.0484ZM135.412 14.6484V42H136.212V14.6484H135.412ZM135.812 41.6H132.578V42.4H135.812V41.6ZM132.963 41.8912L132.242 39.3423L131.472 39.56L132.193 42.1088L132.963 41.8912ZM131.857 39.0512H131.664V39.8512H131.857V39.0512ZM131.334 39.2252C130.092 41.0388 128.282 41.9516 125.846 41.9516V42.7516C128.518 42.7516 130.588 41.7307 131.994 39.6772L131.334 39.2252ZM126.953 39.4117C128.723 39.4117 130.096 38.9154 130.972 37.8406L130.352 37.3352C129.681 38.1589 128.581 38.6117 126.953 38.6117V39.4117ZM130.974 37.8387C131.832 36.7725 132.233 35.1088 132.257 32.9341L131.457 32.9253C131.434 35.0397 131.039 36.4814 130.35 37.3371L130.974 37.8387ZM132.257 32.9297V32.3496H131.457V32.9297H132.257ZM132.257 32.3496C132.257 29.8792 131.86 28.0248 130.978 26.8843L130.345 27.3735C131.058 28.2955 131.457 29.9216 131.457 32.3496H132.257ZM130.978 26.8843C130.084 25.7267 128.7 25.182 126.918 25.182V25.982C128.534 25.982 129.646 26.4686 130.345 27.3735L130.978 26.8843ZM126.918 25.182C125.334 25.182 124.088 25.8379 123.227 27.1363L123.894 27.5785C124.603 26.5097 125.595 25.982 126.918 25.982V25.182ZM123.228 27.1348C122.381 28.3994 121.983 30.1659 121.983 32.3848H122.783C122.783 30.2443 123.17 28.6592 123.893 27.5801L123.228 27.1348ZM121.983 32.3848C121.983 34.5783 122.368 36.3164 123.193 37.5469L123.858 37.1015C123.159 36.0586 122.783 34.5037 122.783 32.3848H121.983ZM123.194 37.5485C124.04 38.7981 125.316 39.4117 126.953 39.4117V38.6117C125.543 38.6117 124.534 38.1003 123.856 37.1L123.194 37.5485ZM160.069 42V42.4H160.469V42H160.069ZM155.499 42H155.099V42.4H155.499V42ZM155.499 29.4507H155.899V29.0507H155.499V29.4507ZM142.664 29.4507V29.0507H142.264V29.4507H142.664ZM142.664 42V42.4H143.064V42H142.664ZM138.112 42H137.712V42.4H138.112V42ZM138.112 14.1592V13.7592H137.712V14.1592H138.112ZM142.664 14.1592H143.064V13.7592H142.664V14.1592ZM142.664 25.5469H142.264V25.9469H142.664V25.5469ZM155.499 25.5469V25.9469H155.899V25.5469H155.499ZM155.499 14.1592V13.7592H155.099V14.1592H155.499ZM160.069 14.1592H160.469V13.7592H160.069V14.1592ZM160.069 41.6H155.499V42.4H160.069V41.6ZM155.899 42V29.4507H155.099V42H155.899ZM155.499 29.0507H142.664V29.8507H155.499V29.0507ZM142.264 29.4507V42H143.064V29.4507H142.264ZM142.664 41.6H138.112V42.4H142.664V41.6ZM138.512 42V14.1592H137.712V42H138.512ZM138.112 14.5592H142.664V13.7592H138.112V14.5592ZM142.264 14.1592V25.5469H143.064V14.1592H142.264ZM142.664 25.9469H155.499V25.1469H142.664V25.9469ZM155.899 25.5469V14.1592H155.099V25.5469H155.899ZM155.499 14.5592H160.069V13.7592H155.499V14.5592ZM159.669 14.1592V42H160.469V14.1592H159.669ZM181.169 42L180.779 42.0888L180.85 42.4H181.169V42ZM180.589 39.4512L180.979 39.3624L180.908 39.0512H180.589V39.4512ZM180.378 39.4512V39.0512H180.159L180.041 39.2364L180.378 39.4512ZM177.917 41.5781L177.743 41.218L177.742 41.2188L177.917 41.5781ZM167.282 22.5586V22.1586H166.882V22.5586H167.282ZM171.448 22.5586H171.848V22.1586H171.448V22.5586ZM172.363 37.9043L172.052 38.1565L172.054 38.1589L172.363 37.9043ZM179.042 37.4648L178.728 37.2176L178.727 37.218L179.042 37.4648ZM180.273 22.5586V22.1586H179.873V22.5586H180.273ZM184.421 22.5586H184.821V22.1586H184.421V22.5586ZM184.421 42V42.4H184.821V42H184.421ZM181.559 41.9112L180.979 39.3624L180.199 39.5399L180.779 42.0888L181.559 41.9112ZM180.589 39.0512H180.378V39.8512H180.589V39.0512ZM180.041 39.2364C179.511 40.0695 178.75 40.7311 177.743 41.218L178.091 41.9382C179.217 41.3939 180.097 40.6376 180.716 39.6659L180.041 39.2364ZM177.742 41.2188C176.75 41.7037 175.604 41.9516 174.296 41.9516V42.7516C175.707 42.7516 176.976 42.4838 178.093 41.9375L177.742 41.2188ZM174.296 41.9516C172.001 41.9516 170.365 41.3808 169.307 40.3123L168.738 40.8752C170.001 42.1504 171.88 42.7516 174.296 42.7516V41.9516ZM169.307 40.3123C168.248 39.2431 167.682 37.5878 167.682 35.2676H166.882C166.882 37.7051 167.477 39.6007 168.738 40.8752L169.307 40.3123ZM167.682 35.2676V22.5586H166.882V35.2676H167.682ZM167.282 22.9586H171.448V22.1586H167.282V22.9586ZM171.048 22.5586V34.5469H171.848V22.5586H171.048ZM171.048 34.5469C171.048 36.0799 171.361 37.3057 172.052 38.1565L172.673 37.6521C172.146 37.0029 171.848 35.9904 171.848 34.5469H171.048ZM172.054 38.1589C172.764 39.0193 173.853 39.4117 175.228 39.4117V38.6117C174.001 38.6117 173.18 38.2658 172.671 37.6497L172.054 38.1589ZM175.228 39.4117C177.042 39.4117 178.45 38.869 179.357 37.7117L178.727 37.218C178.018 38.1232 176.882 38.6117 175.228 38.6117V39.4117ZM179.357 37.7121C180.263 36.5602 180.673 34.7056 180.673 32.2441H179.873C179.873 34.6577 179.462 36.2835 178.728 37.2176L179.357 37.7121ZM180.673 32.2441V22.5586H179.873V32.2441H180.673ZM180.273 22.9586H184.421V22.1586H180.273V22.9586ZM184.021 22.5586V42H184.821V22.5586H184.021ZM184.421 41.6H181.169V42.4H184.421V41.6ZM208.133 42V42.4H208.533V42H208.133ZM203.985 42H203.585V42.4H203.985V42ZM203.071 26.6895L202.76 26.9411L202.762 26.9441L203.071 26.6895ZM195.161 42V42.4H195.561V42H195.161ZM191.03 42H190.63V42.4H191.03V42ZM191.03 22.5586V22.1586H190.63V22.5586H191.03ZM194.264 22.5586L194.654 22.4698L194.583 22.1586H194.264V22.5586ZM194.844 25.1074L194.454 25.1962L194.525 25.5074H194.844V25.1074ZM195.055 25.1074V25.5074H195.275L195.393 25.3213L195.055 25.1074ZM208.133 41.6H203.985V42.4H208.133V41.6ZM204.385 42V30.0469H203.585V42H204.385ZM204.385 30.0469C204.385 28.5037 204.073 27.2755 203.379 26.4348L202.762 26.9441C203.287 27.5799 203.585 28.59 203.585 30.0469H204.385ZM203.382 26.4378C202.682 25.5735 201.59 25.182 200.206 25.182V25.982C201.446 25.982 202.264 26.3289 202.76 26.9411L203.382 26.4378ZM200.206 25.182C198.381 25.182 196.967 25.7241 196.059 26.8821L196.688 27.3757C197.398 26.4712 198.538 25.982 200.206 25.982V25.182ZM196.059 26.8821C195.165 28.0225 194.761 29.8656 194.761 32.3145H195.561C195.561 29.9117 195.965 28.2978 196.688 27.3757L196.059 26.8821ZM194.761 32.3145V42H195.561V32.3145H194.761ZM195.161 41.6H191.03V42.4H195.161V41.6ZM191.43 42V22.5586H190.63V42H191.43ZM191.03 22.9586H194.264V22.1586H191.03V22.9586ZM193.874 22.6474L194.454 25.1962L195.234 25.0187L194.654 22.4698L193.874 22.6474ZM194.844 25.5074H195.055V24.7074H194.844V25.5074ZM195.393 25.3213C195.935 24.4657 196.706 23.7997 197.721 23.3253L197.382 22.6005C196.241 23.1339 195.348 23.8976 194.717 24.8935L195.393 25.3213ZM197.721 23.3253C198.741 22.8486 199.877 22.607 201.137 22.607V21.807C199.772 21.807 198.518 22.0694 197.382 22.6005L197.721 23.3253ZM201.137 22.607C203.406 22.607 205.034 23.1836 206.099 24.2672C207.165 25.352 207.733 27.013 207.733 29.3262H208.533C208.533 26.8932 207.936 24.9947 206.67 23.7064C205.402 22.4169 203.533 21.807 201.137 21.807V22.607ZM207.733 29.3262V42H208.533V29.3262H207.733ZM224.867 38.5371H225.267V37.9923L224.747 38.1555L224.867 38.5371ZM224.867 41.6484L225.027 42.0151L225.267 41.9104V41.6484H224.867ZM223.092 42.1406L223.022 41.7467L223.014 41.7481L223.092 42.1406ZM214.988 25.6875H215.388V25.2875H214.988V25.6875ZM212.334 25.6875H211.934V26.0875H212.334V25.6875ZM212.334 23.8594L212.146 23.5061L211.934 23.6189V23.8594H212.334ZM215.181 22.3477L215.369 22.701L215.509 22.6268L215.56 22.4771L215.181 22.3477ZM216.588 18.2344V17.8344H216.302L216.209 18.105L216.588 18.2344ZM219.137 18.2344H219.537V17.8344H219.137V18.2344ZM219.137 22.5586H218.737V22.9586H219.137V22.5586ZM224.674 22.5586H225.074V22.1586H224.674V22.5586ZM224.674 25.6875V26.0875H225.074V25.6875H224.674ZM219.137 25.6875V25.2875H218.737V25.6875H219.137ZM219.875 38.3086L219.595 38.5949L219.602 38.6015L219.875 38.3086ZM221.844 39.4117C222.894 39.4117 223.942 39.2467 224.987 38.9187L224.747 38.1555C223.776 38.4603 222.809 38.6117 221.844 38.6117V39.4117ZM224.467 38.5371V41.6484H225.267V38.5371H224.467ZM224.707 41.2818C224.289 41.464 223.731 41.621 223.022 41.7468L223.161 42.5345C223.906 42.4024 224.531 42.2313 225.027 42.0151L224.707 41.2818ZM223.014 41.7481C222.326 41.8835 221.608 41.9516 220.859 41.9516V42.7516C221.657 42.7516 222.427 42.679 223.169 42.5331L223.014 41.7481ZM220.859 41.9516C218.969 41.9516 217.624 41.4547 216.746 40.5294C215.864 39.6001 215.388 38.17 215.388 36.1641H214.588C214.588 38.2831 215.09 39.9468 216.166 41.08C217.245 42.2172 218.835 42.7516 220.859 42.7516V41.9516ZM215.388 36.1641V25.6875H214.588V36.1641H215.388ZM214.988 25.2875H212.334V26.0875H214.988V25.2875ZM212.734 25.6875V23.8594H211.934V25.6875H212.734ZM212.521 24.2127L215.369 22.701L214.994 21.9944L212.146 23.5061L212.521 24.2127ZM215.56 22.4771L216.966 18.3638L216.209 18.105L214.803 22.2183L215.56 22.4771ZM216.588 18.6344H219.137V17.8344H216.588V18.6344ZM218.737 18.2344V22.5586H219.537V18.2344H218.737ZM219.137 22.9586H224.674V22.1586H219.137V22.9586ZM224.274 22.5586V25.6875H225.074V22.5586H224.274ZM224.674 25.2875H219.137V26.0875H224.674V25.2875ZM218.737 25.6875V36.0938H219.537V25.6875H218.737ZM218.737 36.0938C218.737 37.149 218.997 38.0108 219.595 38.5948L220.154 38.0224C219.768 37.6454 219.537 37.0307 219.537 36.0938H218.737ZM219.602 38.6015C220.193 39.1509 220.953 39.4117 221.844 39.4117V38.6117C221.117 38.6117 220.564 38.4038 220.147 38.0157L219.602 38.6015ZM230.878 39.7148L230.589 39.9919L230.591 39.9938L230.878 39.7148ZM245.538 33.2109V33.6109H245.938V33.2109H245.538ZM232.583 33.2109V32.8109H232.17L232.183 33.2234L232.583 33.2109ZM234.112 37.5703L233.821 37.8447L233.823 37.8463L234.112 37.5703ZM241.372 38.7656L241.456 39.1568L241.459 39.156L241.372 38.7656ZM244.571 37.6758H244.971V37.0609L244.409 37.3101L244.571 37.6758ZM244.571 41.0332L244.744 41.3943L244.971 41.2856V41.0332H244.571ZM234.06 26.584L233.771 26.3073L233.769 26.3095L234.06 26.584ZM232.653 30.2227L232.255 30.1846L232.213 30.6227H232.653V30.2227ZM241.478 30.2227V30.6227H241.883L241.878 30.2168L241.478 30.2227ZM240.317 26.584L240.02 26.8518L240.022 26.8539L240.317 26.584ZM237.98 41.9516C235.037 41.9516 232.783 41.099 231.165 39.4358L230.591 39.9938C232.394 41.8463 234.875 42.7516 237.98 42.7516V41.9516ZM231.167 39.4378C229.556 37.7609 228.729 35.4386 228.729 32.4199H227.929C227.929 35.5887 228.801 38.1297 230.589 39.9919L231.167 39.4378ZM228.729 32.4199C228.729 29.3095 229.503 26.9174 231.004 25.1944L230.401 24.6689C228.737 26.5787 227.929 29.1788 227.929 32.4199H228.729ZM231.004 25.1944C232.498 23.4786 234.555 22.607 237.224 22.607V21.807C234.361 21.807 232.07 22.7519 230.401 24.6689L231.004 25.1944ZM237.224 22.607C239.703 22.607 241.618 23.3566 243.016 24.8212L243.595 24.2687C242.017 22.6161 239.877 21.807 237.224 21.807V22.607ZM243.016 24.8212C244.416 26.2869 245.138 28.3223 245.138 30.9785H245.938C245.938 28.1738 245.172 25.9201 243.595 24.2687L243.016 24.8212ZM245.138 30.9785V33.2109H245.938V30.9785H245.138ZM245.538 32.8109H232.583V33.6109H245.538V32.8109ZM232.183 33.2234C232.244 35.1734 232.773 36.7325 233.821 37.8447L234.403 37.296C233.53 36.3691 233.04 35.0219 232.983 33.1985L232.183 33.2234ZM233.823 37.8463C234.878 38.9524 236.347 39.482 238.173 39.482V38.682C236.507 38.682 235.269 38.2038 234.402 37.2943L233.823 37.8463ZM238.173 39.482C239.346 39.482 240.441 39.3743 241.456 39.1567L241.288 38.3745C240.335 38.5788 239.297 38.682 238.173 38.682V39.482ZM241.459 39.156C242.486 38.9265 243.578 38.5538 244.733 38.0415L244.409 37.3101C243.292 37.8056 242.25 38.1594 241.285 38.3753L241.459 39.156ZM244.171 37.6758V41.0332H244.971V37.6758H244.171ZM244.399 40.6721C243.42 41.1389 242.433 41.4676 241.437 41.66L241.589 42.4455C242.655 42.2394 243.707 41.8884 244.744 41.3943L244.399 40.6721ZM241.437 41.66C240.436 41.8533 239.285 41.9516 237.98 41.9516V42.7516C239.323 42.7516 240.527 42.6506 241.589 42.4455L241.437 41.66ZM237.224 24.9359C235.819 24.9359 234.654 25.3852 233.771 26.3073L234.349 26.8607C235.059 26.1187 236.004 25.7359 237.224 25.7359V24.9359ZM233.769 26.3095C232.902 27.2276 232.413 28.537 232.255 30.1846L233.052 30.2607C233.199 28.7208 233.647 27.6044 234.351 26.8585L233.769 26.3095ZM232.653 30.6227H241.478V29.8227H232.653V30.6227ZM241.878 30.2168C241.853 28.5564 241.453 27.233 240.613 26.3141L240.022 26.8539C240.682 27.5756 241.055 28.678 241.078 30.2285L241.878 30.2168ZM240.615 26.3162C239.776 25.3854 238.628 24.9359 237.224 24.9359V25.7359C238.444 25.7359 239.359 26.1186 240.02 26.8518L240.615 26.3162ZM262.869 22.3828L263.267 22.4246L263.305 22.0681L262.954 21.9919L262.869 22.3828ZM262.465 26.2324L262.372 26.6214L262.815 26.7278L262.863 26.2742L262.465 26.2324ZM256.612 27.6387L256.323 27.3622L256.321 27.3638L256.612 27.6387ZM255.082 42V42.4H255.482V42H255.082ZM250.952 42H250.552V42.4H250.952V42ZM250.952 22.5586V22.1586H250.552V22.5586H250.952ZM254.186 22.5586L254.581 22.4958L254.527 22.1586H254.186V22.5586ZM254.731 25.9863L254.336 26.0491L254.389 26.3863H254.731V25.9863ZM254.942 25.9863V26.3863H255.177L255.291 26.1806L254.942 25.9863ZM257.455 23.2266L257.237 22.8914L257.235 22.8926L257.455 23.2266ZM260.813 22.607C261.629 22.607 262.284 22.6648 262.785 22.7737L262.954 21.9919C262.377 21.8665 261.661 21.807 260.813 21.807V22.607ZM262.472 22.341L262.067 26.1906L262.863 26.2742L263.267 22.4246L262.472 22.341ZM262.559 25.8435C261.941 25.6951 261.3 25.6215 260.637 25.6215V26.4215C261.24 26.4215 261.818 26.4884 262.372 26.6214L262.559 25.8435ZM260.637 25.6215C258.889 25.6215 257.438 26.1963 256.323 27.3622L256.901 27.9152C257.848 26.9248 259.081 26.4215 260.637 26.4215V25.6215ZM256.321 27.3638C255.22 28.5281 254.682 30.0326 254.682 31.8398H255.482C255.482 30.2018 255.964 28.9055 256.902 27.9135L256.321 27.3638ZM254.682 31.8398V42H255.482V31.8398H254.682ZM255.082 41.6H250.952V42.4H255.082V41.6ZM251.352 42V22.5586H250.552V42H251.352ZM250.952 22.9586H254.186V22.1586H250.952V22.9586ZM253.791 22.6214L254.336 26.0491L255.126 25.9235L254.581 22.4958L253.791 22.6214ZM254.731 26.3863H254.942V25.5863H254.731V26.3863ZM255.291 26.1806C255.907 25.0725 256.702 24.2022 257.676 23.5605L257.235 22.8926C256.146 23.6103 255.266 24.5799 254.592 25.7921L255.291 26.1806ZM257.674 23.5617C258.655 22.9225 259.698 22.607 260.813 22.607V21.807C259.537 21.807 258.342 22.1713 257.237 22.8914L257.674 23.5617Z" fill="#A58FAA"/>
<g clip-path="url(#clip0)">
<path d="M49.448 21.7218H42.205V9.44967H44.9805C45.8374 9.44967 46.5324 8.75465 46.5324 7.89771V5.76816C46.5324 2.65803 44.0022 0.127563 40.8918 0.127563H18.7767C15.6665 0.127563 13.1361 2.65778 13.1361 5.76816V7.89771C13.1361 8.75465 13.8311 9.44967 14.688 9.44967H17.4634V21.7215H10.8617L7.21015 18.0845C6.91916 17.7948 6.52548 17.6321 6.11498 17.6321H1.55196C0.69502 17.6321 0 18.3271 0 19.1841C0 20.041 0.69502 20.736 1.55196 20.736H4.8416H5.47351L6.0423 21.3025L8.66873 23.9183V36.5686C8.66873 39.8836 10.5288 42.7721 13.2597 44.2464C14.8088 48.1243 18.6008 50.8725 23.0249 50.8725C27.0416 50.8725 30.5382 48.6072 32.3077 45.2878H42.9557V49.3206C42.9557 50.1775 43.6507 50.8725 44.5076 50.8725C45.3646 50.8725 46.0596 50.1775 46.0596 49.3206V45.2878H49.4483C50.3052 45.2878 51.0003 44.5928 51.0003 43.7358V23.2738C51 22.4166 50.305 21.7218 49.448 21.7218V21.7218ZM47.8961 42.1839H33.3762C33.4804 41.5908 33.5379 40.9819 33.5379 40.3593C33.5379 34.5625 28.8217 29.8461 23.0246 29.8461C17.5431 29.8461 13.0305 34.0638 12.5554 39.424C12.0587 38.5867 11.7724 37.6108 11.7724 36.5686V24.8257H19.0154H40.6526H47.8956V42.1839H47.8961ZM15.6161 40.3593C15.6161 36.2738 18.9399 32.95 23.0254 32.95C27.1109 32.95 30.4347 36.2738 30.4347 40.3593C30.4347 44.4448 27.1109 47.7686 23.0254 47.7686C18.9399 47.7686 15.6161 44.4448 15.6161 40.3593ZM16.2407 5.76816C16.2407 4.36959 17.3786 3.23148 18.7774 3.23148H40.8926C42.2912 3.23148 43.4293 4.36933 43.4293 5.76816V6.34575H16.2407V5.76816V5.76816ZM20.5681 9.44967H39.1014V21.7215H20.5681V9.44967Z" fill="#A58FAA" fill-opacity="0.93"/>
<path d="M23.0246 41.9104C23.4333 41.9104 23.8342 41.7449 24.1213 41.4552C24.411 41.1683 24.5766 40.7672 24.5766 40.3585C24.5766 39.9501 24.411 39.5517 24.1213 39.262C23.8342 38.9723 23.4333 38.8065 23.0246 38.8065C22.6159 38.8065 22.2176 38.9723 21.9279 39.262C21.6382 39.5489 21.4727 39.9501 21.4727 40.3585C21.4727 40.7672 21.6382 41.1683 21.9279 41.4552C22.2176 41.7452 22.6159 41.9104 23.0246 41.9104Z" fill="#A58FAA" fill-opacity="0.93"/>
</g>
<defs>
<clipPath id="clip0">
<rect width="51" height="51" fill="white"/>
</clipPath>
</defs>
</svg>
