<svg width="264" height="53" fill="none" xmlns="http://www.w3.org/2000/svg"><path d="M58.559 42h-4.166V16.3h14.501v3.552H58.56v8.033h9.685v3.568H58.56V42zm32.518-9.756c0 3.176-.814 5.654-2.443 7.436-1.629 1.78-3.896 2.672-6.803 2.672-1.816 0-3.422-.41-4.816-1.23-1.395-.821-2.467-1.999-3.217-3.534-.75-1.535-1.125-3.316-1.125-5.344 0-3.152.809-5.613 2.426-7.383 1.617-1.77 3.896-2.654 6.838-2.654 2.812 0 5.039.908 6.68 2.725 1.64 1.804 2.46 4.242 2.46 7.312zm-14.15 0c0 4.488 1.658 6.733 4.975 6.733 3.28 0 4.921-2.245 4.921-6.733 0-4.441-1.652-6.662-4.956-6.662-1.735 0-2.995.574-3.78 1.723-.773 1.148-1.16 2.795-1.16 4.94zm36.878 0c0 3.176-.814 5.654-2.443 7.436-1.629 1.78-3.897 2.672-6.803 2.672-1.816 0-3.422-.41-4.816-1.23-1.395-.821-2.467-1.999-3.217-3.534-.75-1.535-1.125-3.316-1.125-5.344 0-3.152.809-5.613 2.426-7.383 1.617-1.77 3.896-2.654 6.838-2.654 2.812 0 5.039.908 6.679 2.725 1.641 1.804 2.461 4.242 2.461 7.312zm-14.15 0c0 4.488 1.658 6.733 4.974 6.733 3.282 0 4.922-2.245 4.922-6.733 0-4.441-1.652-6.662-4.957-6.662-1.734 0-2.994.574-3.779 1.723-.773 1.148-1.16 2.795-1.16 4.94zm26.191 10.108c-2.426 0-4.319-.88-5.678-2.637-1.36-1.758-2.039-4.225-2.039-7.4 0-3.188.685-5.667 2.056-7.436 1.383-1.781 3.293-2.672 5.731-2.672 2.555 0 4.5.943 5.836 2.83h.211c-.199-1.394-.299-2.496-.299-3.305v-7.084h4.148V42h-3.234l-.721-2.549h-.193c-1.324 1.934-3.264 2.9-5.818 2.9zm1.107-3.34c1.699 0 2.936-.475 3.709-1.424.773-.961 1.172-2.514 1.195-4.658v-.58c0-2.45-.398-4.19-1.195-5.221-.797-1.031-2.045-1.547-3.744-1.547-1.453 0-2.572.592-3.358 1.775-.785 1.172-1.177 2.848-1.177 5.028 0 2.156.381 3.803 1.142 4.94.762 1.124 1.905 1.687 3.428 1.687zM160.069 42h-4.57V29.45h-12.835V42h-4.552V14.16h4.552v11.387h12.835V14.159h4.57V42zm21.1 0l-.58-2.549h-.211c-.574.902-1.394 1.611-2.461 2.127-1.054.516-2.261.774-3.621.774-2.355 0-4.113-.586-5.273-1.758-1.16-1.172-1.741-2.947-1.741-5.326v-12.71h4.166v11.989c0 1.488.305 2.607.915 3.357.609.739 1.564 1.108 2.865 1.108 1.734 0 3.006-.516 3.814-1.547.821-1.043 1.231-2.783 1.231-5.22v-9.686h4.148V42h-3.252zm26.964 0h-4.148V30.047c0-1.5-.305-2.62-.914-3.358-.598-.738-1.553-1.107-2.865-1.107-1.747 0-3.024.516-3.832 1.547-.809 1.031-1.213 2.76-1.213 5.186V42h-4.131V22.559h3.234l.58 2.548h.211c.586-.925 1.418-1.64 2.496-2.144 1.078-.504 2.274-.756 3.586-.756 4.664 0 6.996 2.373 6.996 7.12V42zm13.711-2.988c1.007 0 2.015-.159 3.023-.475v3.111c-.457.2-1.049.364-1.775.493-.715.14-1.459.21-2.233.21-3.914 0-5.871-2.062-5.871-6.187V25.687h-2.654V23.86l2.847-1.511 1.407-4.114h2.549v4.325h5.537v3.128h-5.537v10.407c0 .996.246 1.734.738 2.215.504.468 1.16.703 1.969.703zm16.136 3.34c-3.024 0-5.391-.88-7.102-2.637-1.699-1.77-2.549-4.201-2.549-7.295 0-3.176.791-5.672 2.373-7.488 1.582-1.817 3.756-2.725 6.522-2.725 2.566 0 4.593.78 6.082 2.338 1.488 1.558 2.232 3.703 2.232 6.433v2.233h-12.955c.059 1.887.568 3.34 1.529 4.36.961 1.007 2.315 1.511 4.061 1.511a15.26 15.26 0 003.199-.316c.996-.223 2.063-.586 3.199-1.09v3.357c-1.007.48-2.027.82-3.058 1.02-1.031.199-2.209.299-3.533.299zm-.756-17.016c-1.313 0-2.367.416-3.164 1.248-.786.832-1.254 2.045-1.407 3.639h8.825c-.024-1.606-.411-2.819-1.161-3.639-.75-.832-1.781-1.248-3.093-1.248zm23.589-3.129c.832 0 1.517.059 2.056.176l-.404 3.85a7.807 7.807 0 00-1.828-.212c-1.652 0-2.994.54-4.025 1.618-1.02 1.078-1.53 2.478-1.53 4.2V42h-4.13V22.559h3.234l.545 3.427h.211c.644-1.16 1.482-2.08 2.513-2.76 1.043-.68 2.163-1.019 3.358-1.019z" fill="#fff"/><path d="M58.559 42v.4h.4V42h-.4zm-4.166 0h-.4v.4h.4V42zm0-25.7v-.4h-.4v.4h.4zm14.501 0h.4v-.4h-.4v.4zm0 3.552v.4h.4v-.4h-.4zm-10.335 0v-.4h-.4v.4h.4zm0 8.033h-.4v.4h.4v-.4zm9.685 0h.4v-.4h-.4v.4zm0 3.568v.4h.4v-.4h-.4zm-9.685 0v-.4h-.4v.4h.4zm0 10.147h-4.166v.8h4.166v-.8zm-3.766.4V16.3h-.8V42h.8zm-.4-25.3h14.501v-.8H54.393v.8zm14.102-.4v3.552h.8V16.3h-.8zm.4 3.152H58.558v.8h10.335v-.8zm-10.736.4v8.033h.8v-8.033h-.8zm.4 8.433h9.685v-.8H58.56v.8zm9.285-.4v3.568h.8v-3.568h-.8zm.4 3.168H58.56v.8h9.685v-.8zm-10.085.4V42h.8V31.453h-.8zm30.458-6.521l-.297.268.297-.268zm-10.53 2.373l-.33-.226-.002.002.332.224zm12.59 4.94c0 3.107-.796 5.478-2.338 7.165l.59.54c1.716-1.876 2.548-4.463 2.548-7.706h-.8zM88.34 39.41c-1.538 1.681-3.689 2.542-6.508 2.542v.8c2.994 0 5.378-.922 7.098-2.802l-.59-.54zm-6.508 2.542c-1.754 0-3.288-.396-4.613-1.176l-.406.69c1.463.86 3.14 1.286 5.02 1.286v-.8zm-4.613-1.176c-1.323-.778-2.343-1.895-3.06-3.364l-.72.352c.783 1.601 1.908 2.84 3.374 3.702l.406-.69zm-3.06-3.364c-.72-1.47-1.085-3.19-1.085-5.168h-.8c0 2.077.385 3.92 1.166 5.52l.719-.352zm-1.085-5.168c0-3.085.79-5.438 2.321-7.113l-.59-.54c-1.704 1.864-2.53 4.433-2.53 7.653h.8zm2.321-7.113c1.525-1.668 3.686-2.524 6.543-2.524v-.8c-3.026 0-5.424.914-7.133 2.785l.59.54zm6.543-2.524c2.718 0 4.83.873 6.383 2.593l.593-.537c-1.728-1.913-4.07-2.856-6.976-2.856v.8zm6.383 2.594c1.558 1.713 2.357 4.046 2.357 7.043h.8c0-3.143-.84-5.686-2.565-7.581l-.592.538zm-11.793 7.043c0 2.282.42 4.066 1.322 5.287.92 1.244 2.295 1.846 4.053 1.846v-.8c-1.559 0-2.67-.521-3.41-1.521-.755-1.023-1.165-2.605-1.165-4.812h-.8zm5.375 7.133c1.742 0 3.104-.603 4.014-1.848.893-1.22 1.308-3.004 1.308-5.285h-.8c0 2.207-.406 3.79-1.154 4.813-.73 1-1.83 1.52-3.368 1.52v.8zm5.322-7.133c0-2.259-.419-4.025-1.319-5.235-.917-1.232-2.287-1.827-4.038-1.827v.8c1.553 0 2.66.516 3.396 1.504.752 1.011 1.16 2.575 1.16 4.758h.8zm-5.358-7.062c-1.83 0-3.23.612-4.109 1.897l.66.451c.692-1.012 1.81-1.548 3.45-1.548v-.8zm-4.11 1.9c-.837 1.24-1.229 2.979-1.229 5.162h.8c0-2.105.381-3.66 1.092-4.716l-.664-.447zm33.588-2.15l-.297.268h.001l.296-.268zm-10.529 2.373l-.33-.226-.002.002.332.224zm12.59 4.94c0 3.107-.796 5.478-2.338 7.165l.59.54c1.715-1.876 2.548-4.463 2.548-7.706h-.8zm-2.338 7.165c-1.538 1.681-3.689 2.542-6.508 2.542v.8c2.994 0 5.378-.922 7.098-2.802l-.59-.54zm-6.508 2.542c-1.754 0-3.288-.396-4.614-1.176l-.405.69c1.463.86 3.14 1.286 5.019 1.286v-.8zm-4.614-1.176c-1.322-.778-2.342-1.895-3.06-3.364l-.719.352c.783 1.601 1.908 2.84 3.374 3.702l.405-.69zm-3.06-3.364c-.718-1.47-1.084-3.19-1.084-5.168H95c0 2.077.384 3.92 1.165 5.52l.72-.352zm-1.084-5.168c0-3.085.79-5.438 2.321-7.113l-.59-.54C95.828 26.456 95 29.024 95 32.245h.8zm2.321-7.113c1.525-1.668 3.686-2.524 6.543-2.524v-.8c-3.027 0-5.424.914-7.134 2.785l.591.54zm6.543-2.524c2.718 0 4.829.873 6.382 2.593l.594-.537c-1.728-1.913-4.069-2.856-6.976-2.856v.8zm6.383 2.594c1.558 1.713 2.357 4.046 2.357 7.043h.8c0-3.143-.841-5.686-2.565-7.581l-.592.538zm-11.793 7.043c0 2.282.42 4.066 1.322 5.287.919 1.244 2.294 1.846 4.052 1.846v-.8c-1.558 0-2.67-.521-3.409-1.521-.755-1.023-1.165-2.605-1.165-4.812h-.8zm5.374 7.133c1.743 0 3.105-.603 4.015-1.848.893-1.22 1.307-3.004 1.307-5.285h-.8c0 2.207-.405 3.79-1.153 4.813-.731 1-1.829 1.52-3.369 1.52v.8zm5.322-7.133c0-2.259-.418-4.025-1.318-5.235-.917-1.232-2.288-1.827-4.039-1.827v.8c1.554 0 2.662.516 3.397 1.504.752 1.011 1.16 2.575 1.16 4.758h.8zm-5.357-7.062c-1.829 0-3.231.612-4.109 1.897l.66.451c.692-1.012 1.81-1.548 3.449-1.548v-.8zm-4.111 1.9c-.836 1.24-1.228 2.979-1.228 5.162h.8c0-2.105.381-3.66 1.092-4.716l-.664-.447zm19.702-2.203l-.316-.245.316.245zm11.567.158l-.327.231.12.17h.207v-.4zm.211 0v.4h.461l-.065-.457-.396.057zm-.299-10.389v-.4h-.4v.4h.4zm4.148 0h.4v-.4h-.4v.4zm0 27.352v.4h.4V42h-.4zm-3.234 0l-.385.109.082.291h.303V42zm-.721-2.549l.385-.109-.082-.29h-.303v.4zm-.193 0v-.4h-.211l-.119.174.33.226zm-1.002-1.863l.31.253.002-.002-.312-.251zm1.195-4.658l.4.004v-.004h-.4zm-8.297-5.573l.333.223.001-.002-.334-.22zm-.035 9.967l-.332.223.001.002.331-.225zm2.321 4.628c-2.315 0-4.086-.832-5.362-2.482l-.633.49c1.443 1.865 3.458 2.792 5.995 2.792v-.8zm-5.362-2.482c-1.286-1.663-1.955-4.031-1.955-7.155h-.8c0 3.227.69 5.792 2.122 7.645l.633-.49zm-1.955-7.155c0-3.136.675-5.516 1.973-7.191l-.633-.49c-1.444 1.864-2.14 4.44-2.14 7.68h.8zm1.972-7.19c1.301-1.676 3.089-2.518 5.415-2.518v-.8c-2.55 0-4.581.939-6.047 2.827l.632.49zm5.415-2.518c2.441 0 4.257.893 5.509 2.661l.653-.462c-1.419-2.005-3.494-2.999-6.162-2.999v.8zm5.836 2.83h.211v-.8h-.211v.8zm.607-.457c-.198-1.387-.295-2.467-.295-3.248h-.8c0 .837.103 1.96.303 3.362l.792-.114zm-.295-3.248v-7.084h-.8v7.084h.8zm-.4-6.684h4.148v-.8h-4.148v.8zm3.748-.4V42h.8V14.648h-.8zm.4 26.952h-3.234v.8h3.234v-.8zm-2.849.291l-.721-2.549-.77.218.721 2.549.77-.218zm-1.106-2.84h-.193v.8h.193v-.8zm-.523.174c-1.242 1.814-3.052 2.727-5.488 2.727v.8c2.672 0 4.742-1.021 6.148-3.075l-.66-.452zm-4.381.187c1.77 0 3.143-.497 4.019-1.571l-.62-.506c-.671.824-1.771 1.277-3.399 1.277v.8zm4.021-1.573c.858-1.066 1.259-2.73 1.283-4.905l-.8-.009c-.023 2.115-.418 3.556-1.107 4.412l.624.502zm1.283-4.91v-.58h-.8v.58h.8zm0-.58c0-2.47-.397-4.324-1.279-5.465l-.633.49c.713.922 1.112 2.548 1.112 4.976h.8zm-1.279-5.465c-.894-1.157-2.278-1.702-4.06-1.702v.8c1.616 0 2.728.487 3.427 1.392l.633-.49zm-4.06-1.702c-1.584 0-2.83.656-3.691 1.954l.667.442c.709-1.068 1.701-1.596 3.024-1.596v-.8zm-3.69 1.953c-.847 1.264-1.245 3.03-1.245 5.25h.8c0-2.14.387-3.726 1.11-4.805l-.665-.445zm-1.245 5.25c0 2.193.385 3.931 1.21 5.162l.665-.445c-.699-1.043-1.075-2.598-1.075-4.717h-.8zm1.211 5.163c.846 1.25 2.122 1.864 3.759 1.864v-.8c-1.41 0-2.419-.512-3.097-1.512l-.662.448zM160.069 42v.4h.4V42h-.4zm-4.57 0h-.4v.4h.4V42zm0-12.55h.4v-.4h-.4v.4zm-12.835 0v-.4h-.4v.4h.4zm0 12.55v.4h.4V42h-.4zm-4.552 0h-.4v.4h.4V42zm0-27.84v-.4h-.4v.4h.4zm4.552 0h.4v-.4h-.4v.4zm0 11.387h-.4v.4h.4v-.4zm12.835 0v.4h.4v-.4h-.4zm0-11.388v-.4h-.4v.4h.4zm4.57 0h.4v-.4h-.4v.4zm0 27.441h-4.57v.8h4.57v-.8zm-4.17.4V29.45h-.8V42h.8zm-.4-12.95h-12.835v.8h12.835v-.8zm-13.235.4V42h.8V29.45h-.8zm.4 12.15h-4.552v.8h4.552v-.8zm-4.152.4V14.16h-.8V42h.8zm-.4-27.44h4.552v-.8h-4.552v.8zm4.152-.4v11.387h.8V14.159h-.8zm.4 11.787h12.835v-.8h-12.835v.8zm13.235-.4V14.159h-.8v11.388h.8zm-.4-10.988h4.57v-.8h-4.57v.8zm4.17-.4V42h.8V14.16h-.8zM181.169 42l-.39.089.071.311h.319V42zm-.58-2.549l.39-.089-.071-.31h-.319v.4zm-.211 0v-.4h-.219l-.118.185.337.215zm-2.461 2.127l-.174-.36h-.001l.175.36zm-10.635-19.02v-.4h-.4v.4h.4zm4.166 0h.4v-.4h-.4v.4zm.915 15.346l-.311.252.002.003.309-.255zm6.679-.44l-.314-.246h-.001l.315.247zm1.231-14.905v-.4h-.4v.4h.4zm4.148 0h.4v-.4h-.4v.4zm0 19.441v.4h.4V42h-.4zm-2.862-.089l-.58-2.549-.78.178.58 2.549.78-.178zm-.97-2.86h-.211v.8h.211v-.8zm-.548.185c-.53.834-1.291 1.495-2.298 1.982l.348.72c1.126-.544 2.006-1.3 2.625-2.272l-.675-.43zm-2.299 1.983c-.992.485-2.138.733-3.446.733v.8c1.411 0 2.68-.268 3.797-.815l-.351-.718zm-3.446.733c-2.295 0-3.931-.571-4.989-1.64l-.569.563c1.263 1.275 3.142 1.877 5.558 1.877v-.8zm-4.989-1.64c-1.059-1.069-1.625-2.724-1.625-5.044h-.8c0 2.437.595 4.333 1.856 5.607l.569-.563zm-1.625-5.044v-12.71h-.8v12.71h.8zm-.4-12.31h4.166v-.8h-4.166v.8zm3.766-.4v11.989h.8V22.559h-.8zm0 11.989c0 1.533.313 2.759 1.004 3.61l.621-.505c-.527-.65-.825-1.662-.825-3.105h-.8zm1.006 3.612c.71.86 1.799 1.253 3.174 1.253v-.8c-1.227 0-2.048-.346-2.557-.962l-.617.509zm3.174 1.253c1.814 0 3.222-.543 4.129-1.7l-.63-.494c-.709.905-1.845 1.394-3.499 1.394v.8zm4.129-1.7c.906-1.152 1.316-3.006 1.316-5.468h-.8c0 2.414-.411 4.04-1.145 4.974l.629.494zm1.316-5.468V22.56h-.8v9.685h.8zm-.4-9.285h4.148v-.8h-4.148v.8zm3.748-.4V42h.8V22.559h-.8zm.4 19.041h-3.252v.8h3.252v-.8zm23.712.4v.4h.4V42h-.4zm-4.148 0h-.4v.4h.4V42zm-.914-15.31l-.311.251.002.003.309-.255zM195.161 42v.4h.4V42h-.4zm-4.131 0h-.4v.4h.4V42zm0-19.441v-.4h-.4v.4h.4zm3.234 0l.39-.09-.071-.31h-.319v.4zm.58 2.548l-.39.09.071.31h.319v-.4zm.211 0v.4h.22l.118-.186-.338-.214zM208.133 41.6h-4.148v.8h4.148v-.8zm-3.748.4V30.047h-.8V42h.8zm0-11.953c0-1.543-.312-2.771-1.006-3.612l-.617.51c.525.635.823 1.645.823 3.102h.8zm-1.003-3.61c-.7-.864-1.792-1.255-3.176-1.255v.8c1.24 0 2.058.347 2.554.96l.622-.504zm-3.176-1.255c-1.825 0-3.239.542-4.147 1.7l.629.494c.71-.905 1.85-1.394 3.518-1.394v-.8zm-4.147 1.7c-.894 1.14-1.298 2.984-1.298 5.433h.8c0-2.403.404-4.017 1.127-4.94l-.629-.493zm-1.298 5.433V42h.8v-9.685h-.8zm.4 9.285h-4.131v.8h4.131v-.8zm-3.731.4V22.559h-.8V42h.8zm-.4-19.041h3.234v-.8h-3.234v.8zm2.844-.312l.58 2.55.78-.178-.58-2.55-.78.178zm.97 2.86h.211v-.8h-.211v.8zm.549-.186c.542-.855 1.313-1.521 2.328-1.996l-.339-.724c-1.141.533-2.034 1.297-2.665 2.293l.676.427zm2.328-1.996c1.02-.476 2.156-.718 3.416-.718v-.8c-1.365 0-2.619.262-3.755.794l.339.724zm3.416-.718c2.269 0 3.897.577 4.962 1.66 1.066 1.085 1.634 2.746 1.634 5.06h.8c0-2.434-.597-4.332-1.863-5.62-1.268-1.29-3.137-1.9-5.533-1.9v.8zm6.596 6.72V42h.8V29.326h-.8zm17.134 9.21h.4v-.545l-.52.164.12.381zm0 3.111l.16.367.24-.105v-.262h-.4zm-1.775.493l-.07-.394-.008.001.078.393zm-8.104-16.453h.4v-.4h-.4v.4zm-2.654 0h-.4v.4h.4v-.4zm0-1.829l-.188-.353-.212.113v.24h.4zm2.847-1.511l.188.353.14-.074.051-.15-.379-.13zm1.407-4.114v-.4h-.286l-.093.271.379.13zm2.549 0h.4v-.4h-.4v.4zm0 4.325h-.4v.4h.4v-.4zm5.537 0h.4v-.4h-.4v.4zm0 3.128v.4h.4v-.4h-.4zm-5.537 0v-.4h-.4v.4h.4zm.738 12.622l-.28.286.007.007.273-.293zm1.969 1.103c1.05 0 2.098-.165 3.143-.493l-.24-.763a9.644 9.644 0 01-2.903.456v.8zm2.623-.875v3.111h.8v-3.11h-.8zm.24 2.745c-.418.182-.976.339-1.685.465l.139.788c.745-.133 1.37-.304 1.866-.52l-.32-.733zm-1.693.466a11.09 11.09 0 01-2.155.204v.8c.798 0 1.568-.073 2.31-.219l-.155-.785zm-2.155.204c-1.89 0-3.235-.497-4.113-1.423-.882-.929-1.358-2.359-1.358-4.365h-.8c0 2.12.502 3.783 1.578 4.916 1.079 1.137 2.669 1.672 4.693 1.672v-.8zm-5.471-5.788V25.687h-.8v10.477h.8zm-.4-10.877h-2.654v.8h2.654v-.8zm-2.254.4V23.86h-.8v1.828h.8zm-.213-1.474l2.848-1.512-.375-.707-2.848 1.512.375.707zm3.039-1.736l1.406-4.113-.757-.259-1.406 4.113.757.26zm1.028-3.843h2.549v-.8h-2.549v.8zm2.149-.4v4.325h.8v-4.325h-.8zm.4 4.725h5.537v-.8h-5.537v.8zm5.137-.4v3.128h.8V22.56h-.8zm.4 2.729h-5.537v.8h5.537v-.8zm-5.937.4v10.406h.8V25.687h-.8zm0 10.406c0 1.055.26 1.917.858 2.5l.559-.572c-.386-.377-.617-.991-.617-1.928h-.8zm.865 2.508c.591.549 1.351.81 2.242.81v-.8c-.727 0-1.28-.208-1.697-.596l-.545.586zm11.276 1.113l-.289.277.002.002.287-.28zm14.66-6.504v.4h.4v-.4h-.4zm-12.955 0v-.4h-.413l.013.412.4-.012zm1.529 4.36l-.291.274.002.001.289-.276zm7.26 1.195l.084.39h.003l-.087-.39zm3.199-1.09h.4v-.615l-.562.25.162.365zm0 3.357l.173.361.227-.108v-.253h-.4zM234.06 26.584l-.289-.277-.002.003.291.274zm-1.407 3.639l-.398-.038-.042.438h.44v-.4zm8.825 0v.4h.405l-.005-.406-.4.006zm-1.161-3.639l-.297.268.002.002.295-.27zm-2.337 15.368c-2.943 0-5.197-.853-6.815-2.516l-.574.558c1.803 1.852 4.284 2.758 7.389 2.758v-.8zm-6.813-2.514c-1.611-1.677-2.438-4-2.438-7.018h-.8c0 3.169.872 5.71 2.66 7.572l.578-.554zm-2.438-7.018c0-3.11.774-5.503 2.275-7.226l-.603-.525c-1.664 1.91-2.472 4.51-2.472 7.75h.8zm2.275-7.226c1.494-1.715 3.551-2.587 6.22-2.587v-.8c-2.863 0-5.154.945-6.823 2.862l.603.525zm6.22-2.587c2.479 0 4.394.75 5.792 2.214l.579-.552c-1.578-1.653-3.718-2.462-6.371-2.462v.8zm5.792 2.214c1.4 1.466 2.122 3.501 2.122 6.157h.8c0-2.804-.766-5.058-2.343-6.71l-.579.553zm2.122 6.157v2.233h.8v-2.232h-.8zm.4 1.833h-12.955v.8h12.955v-.8zm-13.355.412c.061 1.95.59 3.51 1.638 4.622l.582-.549c-.873-.927-1.363-2.274-1.42-4.097l-.8.024zm1.64 4.623c1.055 1.106 2.524 1.636 4.35 1.636v-.8c-1.666 0-2.904-.478-3.771-1.388l-.579.552zm4.35 1.636a15.7 15.7 0 003.283-.325l-.168-.782a14.86 14.86 0 01-3.115.307v.8zm3.286-.326c1.027-.23 2.119-.602 3.274-1.114l-.324-.732c-1.117.496-2.159.85-3.124 1.065l.174.781zm2.712-1.48v3.357h.8v-3.357h-.8zm.228 2.996c-.979.467-1.966.796-2.962.988l.152.786a13.104 13.104 0 003.155-1.052l-.345-.722zm-2.962.988c-1.001.193-2.152.292-3.457.292v.8c1.343 0 2.547-.101 3.609-.306l-.152-.786zm-4.213-16.724c-1.405 0-2.57.45-3.453 1.371l.578.554c.71-.742 1.655-1.125 2.875-1.125v-.8zm-3.455 1.373c-.867.919-1.356 2.228-1.514 3.876l.797.076c.147-1.54.595-2.657 1.299-3.402l-.582-.55zm-1.116 4.314h8.825v-.8h-8.825v.8zm9.225-.406c-.025-1.66-.425-2.984-1.265-3.903l-.591.54c.66.722 1.033 1.824 1.056 3.375l.8-.012zm-1.263-3.9c-.839-.932-1.987-1.381-3.391-1.381v.8c1.22 0 2.135.383 2.796 1.116l.595-.536zm22.254-3.934l.398.042.038-.357-.351-.076-.085.39zm-.404 3.85l-.093.388.443.107.048-.454-.398-.042zm-5.853 1.406l-.289-.277-.002.002.291.275zM255.082 42v.4h.4V42h-.4zm-4.13 0h-.4v.4h.4V42zm0-19.441v-.4h-.4v.4h.4zm3.234 0l.395-.063-.054-.337h-.341v.4zm.545 3.427l-.395.063.053.337h.342v-.4zm.211 0v.4h.235l.114-.205-.349-.195zm2.513-2.76l-.218-.335-.002.002.22.334zm3.358-.619c.816 0 1.471.058 1.972.167l.169-.782c-.577-.126-1.293-.185-2.141-.185v.8zm1.659-.266l-.405 3.85.796.083.404-3.85-.795-.083zm.087 3.502a8.205 8.205 0 00-1.922-.221v.8c.603 0 1.181.066 1.735.2l.187-.779zm-1.922-.221c-1.748 0-3.199.574-4.314 1.74l.578.553c.947-.99 2.18-1.493 3.736-1.493v-.8zm-4.316 1.742c-1.101 1.164-1.639 2.669-1.639 4.476h.8c0-1.638.482-2.934 1.42-3.927l-.581-.55zm-1.639 4.476V42h.8V31.84h-.8zm.4 9.76h-4.13v.8h4.13v-.8zm-3.73.4V22.559h-.8V42h.8zm-.4-19.041h3.234v-.8h-3.234v.8zm2.839-.338l.545 3.428.79-.125-.545-3.428-.79.125zm.94 3.765h.211v-.8h-.211v.8zm.56-.205c.616-1.108 1.411-1.979 2.385-2.62l-.441-.668c-1.089.717-1.969 1.687-2.643 2.9l.699.388zm2.383-2.62c.981-.639 2.024-.954 3.139-.954v-.8c-1.276 0-2.471.364-3.576 1.084l.437.67z" fill="#A58FAA"/><g clip-path="url(#clip0)" fill="#A58FAA" fill-opacity=".93"><path d="M49.448 21.722h-7.243V9.45h2.776c.856 0 1.551-.695 1.551-1.552v-2.13c0-3.11-2.53-5.64-5.64-5.64H18.777c-3.11 0-5.64 2.53-5.64 5.64v2.13c0 .857.694 1.552 1.551 1.552h2.775v12.27h-6.601L7.21 18.084a1.552 1.552 0 00-1.095-.452H1.552a1.552 1.552 0 000 3.104h3.922l.568.566 2.627 2.616v12.65a8.727 8.727 0 004.59 7.678c1.55 3.878 5.342 6.627 9.766 6.627 4.017 0 7.513-2.266 9.283-5.585h10.648v4.033a1.552 1.552 0 003.104 0v-4.033h3.388c.857 0 1.552-.695 1.552-1.552V23.274c0-.857-.695-1.552-1.552-1.552zm-1.552 20.462h-14.52c.104-.593.162-1.202.162-1.825 0-5.797-4.716-10.513-10.513-10.513-5.482 0-9.994 4.218-10.47 9.578a5.579 5.579 0 01-.783-2.855V24.826h36.124v17.358zm-32.28-1.825c0-4.085 3.324-7.409 7.41-7.409 4.085 0 7.409 3.324 7.409 7.41 0 4.085-3.324 7.409-7.41 7.409-4.085 0-7.409-3.324-7.409-7.41zm.625-34.59a2.54 2.54 0 012.536-2.538h22.116a2.54 2.54 0 012.536 2.537v.578H16.241v-.578zm4.327 3.68h18.533v12.272H20.568V9.45z"/><path d="M23.025 41.91a1.555 1.555 0 001.552-1.551 1.555 1.555 0 00-1.552-1.552 1.555 1.555 0 00-1.552 1.552 1.554 1.554 0 001.552 1.551z"/></g><defs><clipPath id="clip0"><path fill="#fff" d="M0 0h51v51H0z"/></clipPath></defs></svg>